HIERARCHY
ROOT hip
{
	OFFSET 0.000000 0.000000 0.000000 
	CHANNELS 6 Xposition Yposition Zposition Xrotation Zrotation Yrotation
	JOINT abdomen
	{
		OFFSET 0.000000 3.402643 0.000000 
		CHANNELS 3 Xrotation Zrotation Yrotation
		JOINT chest
		{
			OFFSET 0.000000 8.438565 -0.680529 
			CHANNELS 3 Xrotation Zrotation Yrotation
			JOINT neck
			{
				OFFSET 0.000000 10.207942 -0.272212 
				CHANNELS 3 Xrotation Zrotation Yrotation
				JOINT head
				{
					OFFSET 0.000000 3.130431 0.000000 
					CHANNELS 3 Xrotation Zrotation Yrotation
					End Site
					{
						OFFSET 0.000000 3.130435 0.000000 
					}
				}
			}
			JOINT lCollar
			{
				OFFSET 3.470700 6.669187 -0.816635 
				CHANNELS 3 Yrotation Zrotation Xrotation
				JOINT lShldr
				{
					OFFSET 3.198488 0.000000 0.000000 
					CHANNELS 3 Zrotation Yrotation Xrotation
					JOINT lForeArm
					{
						OFFSET 10.139888 0.000000 0.000000 
						CHANNELS 3 Yrotation Zrotation Xrotation
						JOINT lHand
						{
							OFFSET 8.370511 0.000000 0.000000 
							CHANNELS 3 Zrotation Yrotation Xrotation
							End Site
							{
								OFFSET 4.083176 0.000000 0.000000 
							}
						}
					}
				}
			}
			JOINT rCollar
			{
				OFFSET -3.470700 6.669187 -0.816635 
				CHANNELS 3 Yrotation Zrotation Xrotation
				JOINT rShldr
				{
					OFFSET -3.198488 0.000000 0.000000 
					CHANNELS 3 Zrotation Yrotation Xrotation
					JOINT rForeArm
					{
						OFFSET -10.139888 0.000000 0.000000 
						CHANNELS 3 Yrotation Zrotation Xrotation
						JOINT rHand
						{
							OFFSET -8.370511 0.000000 0.000000 
							CHANNELS 3 Zrotation Yrotation Xrotation
							End Site
							{
								OFFSET -4.083176 0.000000 0.000000 
							}
						}
					}
				}
			}
		}
	}
	JOINT lThigh
	{
		OFFSET 5.308129 -1.633274 1.361059 
		CHANNELS 3 Xrotation Zrotation Yrotation
		JOINT lShin
		{
			OFFSET -2.041588 -20.007561 0.000000 
			CHANNELS 3 Xrotation Zrotation Yrotation
			JOINT lFoot
			{
				OFFSET 0.000000 -19.190928 -1.224953 
				CHANNELS 3 Xrotation Yrotation Zrotation
				End Site
				{
					OFFSET 0.000000 -2.449906 4.627600 
				}
			}
		}
	}
	JOINT rThigh
	{
		OFFSET -5.308129 -1.633274 1.361059 
		CHANNELS 3 Xrotation Zrotation Yrotation
		JOINT rShin
		{
			OFFSET 2.041588 -20.007561 0.000000 
			CHANNELS 3 Xrotation Zrotation Yrotation
			JOINT rFoot
			{
				OFFSET 0.000000 -19.190928 -1.224953 
				CHANNELS 3 Xrotation Yrotation Zrotation
				End Site
				{
					OFFSET 0.000000 -2.449906 4.627600 
				}
			}
		}
	}
}
MOTION
Frames: 8
Frame Time: 0.016667
41.441345 47.365303 -38.841003 -9.108869 2.285298 56.157421 3.092469 0.709089 3.099210 2.959036 -0.129343 1.645131 -12.859118 17.893816 -33.702541 18.360155 13.307885 -12.877819 -0.966184 -2.090659 -0.113862 -59.888977 13.777872 -25.343861 -52.025501 -0.617463 24.707512 1.582842 -3.369808 1.351134 0.956406 2.080914 -0.113715 18.132195 22.556715 -110.311096 7.681698 1.258209 -0.943641 -1.582944 3.451863 71.283447 -24.101082 0.527027 -0.619696 66.526405 2.963333 5.825109 -29.562767 8.572293 -0.389337 -20.914440 -7.625925 5.033868 45.390362 -5.973272 -4.493146 -6.681519 -16.566235 -1.298006 
41.427685 47.554527 -38.339264 -9.314297 2.312882 55.080059 3.460984 0.957777 2.618088 3.223113 0.387412 1.384748 -12.205672 17.844786 -32.807354 18.560831 13.059229 -12.444306 -0.966184 -2.090659 -0.113862 -62.670673 15.023489 -31.408598 -49.125618 -0.581451 24.741611 1.572873 -3.369813 0.804836 0.956406 2.080914 -0.113715 16.123997 25.349485 -116.120384 7.066635 1.259191 -0.946567 -1.571657 3.467364 77.134361 -24.194530 0.575715 -1.104909 67.708672 2.816633 5.882443 -28.321865 10.746847 0.510504 -20.868603 -7.226267 4.291354 45.680817 -5.944399 -4.525448 -7.377285 -15.055099 -1.315718 
41.372105 47.654030 -37.873196 -9.271818 1.725223 53.878685 2.955214 0.949459 3.155517 2.812660 0.231171 1.650820 -11.812623 17.694120 -32.536148 18.334354 12.913650 -12.540354 -0.966184 -2.090659 -0.113862 -62.541794 16.012241 -33.368660 -45.943665 -0.540776 24.774719 1.561990 -3.369835 -2.416668 0.956406 2.080914 -0.113715 15.810468 25.159193 -119.737930 6.851861 1.262924 -0.948017 -1.569569 3.476798 81.226357 -25.370016 1.005661 -1.334365 69.115715 2.650280 5.926594 -26.459660 11.846692 0.683209 -21.616592 -6.346742 4.197621 45.808525 -5.866317 -4.534668 -7.149565 -14.399623 -1.240293 
41.359856 47.757298 -37.488029 -9.713730 2.117664 52.528458 3.244578 1.249807 3.430016 2.686205 0.471941 1.751002 -10.628175 16.907793 -31.963772 18.550102 12.279364 -12.472456 -0.966184 -2.090659 -0.113862 -64.439301 14.966842 -37.477463 -41.666290 -0.476627 24.818367 1.561903 -3.369839 -2.670575 0.956406 2.080914 -0.113715 14.097987 25.716143 -120.713188 6.588273 1.267513 -0.949779 -1.569356 3.477571 81.577942 -25.341116 1.073557 -1.511773 70.589493 2.522644 5.979272 -25.215691 12.109420 0.547271 -21.243261 -5.780177 4.493396 46.053864 -5.800743 -4.569826 -7.425310 -13.600811 -1.197189 
41.410843 47.919678 -37.230976 -9.967074 2.000618 51.015900 3.522743 1.501948 3.771518 2.852035 0.397521 1.932260 -10.187386 16.331499 -31.456091 18.565582 11.893542 -12.329360 -0.966184 -2.090659 -0.113862 -65.671036 15.128263 -40.210163 -38.461834 -0.427895 24.850445 1.560634 -3.360134 -4.262372 0.956406 2.080914 -0.113715 12.893841 25.485413 -117.398682 6.842098 1.263094 -0.948083 -1.581334 3.466889 77.211906 -25.815241 1.054217 -1.680969 71.768967 2.376687 5.992449 -25.726156 12.432035 0.792390 -21.165819 -4.969823 5.318034 45.716049 -5.817267 -4.543022 -7.569335 -12.992895 -1.149139 
41.468426 48.083004 -36.961552 -10.022130 1.298249 49.321426 3.644249 1.849150 4.124360 3.076437 0.295433 2.113630 -10.396155 17.322674 -31.540865 18.924969 12.400157 -12.096206 -0.966184 -2.090659 -0.113862 -67.271500 14.914042 -43.945011 -35.184563 -0.381110 24.879553 1.561767 -3.369846 -3.070966 0.956406 2.080914 -0.113715 10.488187 26.660931 -131.249847 6.803048 1.263773 -0.948345 -1.553254 3.494795 89.804276 -26.946793 1.200593 -1.844883 72.850525 2.248594 6.026474 -25.314007 12.655393 0.763214 -21.446339 -3.779217 6.508133 44.956905 -5.820149 -4.533257 -6.628073 -12.787905 -0.888039 
41.516949 48.292484 -36.684128 -10.732439 0.105543 48.310070 3.591904 2.297329 3.872268 2.968817 -0.147812 2.009868 -10.745150 17.006777 -31.060610 18.652576 12.343017 -11.891073 -0.966184 -2.090659 -0.113862 -68.052612 16.398743 -45.585255 -32.626045 -0.338299 24.902626 1.561667 -3.369852 -3.363934 0.956406 2.080914 -0.113715 9.640354 26.862782 -127.523720 6.490648 1.269214 -0.950425 -1.556604 3.486665 85.846786 -28.312595 1.972045 -2.772371 74.019638 2.121756 6.053956 -24.802855 11.423221 0.133852 -21.223824 -1.689726 7.348988 43.911179 -5.800379 -4.442959 -5.517518 -13.382478 -0.688929 
41.543083 48.489719 -36.403759 -10.039465 -0.509653 47.170300 3.500957 2.235324 4.016181 2.998821 -0.508013 2.110691 -10.730012 16.850853 -30.827406 18.627050 12.199509 -11.785544 -0.966184 -2.090659 -0.113862 -68.847153 16.662394 -47.061943 -29.787472 -0.299749 24.916954 1.562400 -3.369823 -1.215497 0.956406 2.080914 -0.113715 7.848310 27.386169 -128.418686 6.236799 1.263936 -0.951032 -1.565394 3.489114 87.087021 -30.054495 1.161593 -3.006467 74.641434 2.004822 6.092894 -24.635675 9.260335 -0.836824 -21.918997 -1.074801 8.972664 43.418808 -5.790439 -4.422956 -5.988483 -14.048923 -0.832386 
